<?xml version="1.0" encoding="UTF-8" standalone="no"?>
<!-- Created with Inkscape (http://www.inkscape.org/) -->

<svg
   xmlns:dc="http://purl.org/dc/elements/1.1/"
   xmlns:cc="http://creativecommons.org/ns#"
   xmlns:rdf="http://www.w3.org/1999/02/22-rdf-syntax-ns#"
   xmlns:svg="http://www.w3.org/2000/svg"
   xmlns="http://www.w3.org/2000/svg"
   xmlns:sodipodi="http://sodipodi.sourceforge.net/DTD/sodipodi-0.dtd"
   xmlns:inkscape="http://www.inkscape.org/namespaces/inkscape"
   width="210mm"
   height="297mm"
   viewBox="0 0 210 297"
   version="1.1"
   id="svg8"
   inkscape:export-filename="C:\Users\user\Documents\RoadLogoBeidir.png"
   inkscape:export-xdpi="96"
   inkscape:export-ydpi="96"
   inkscape:version="0.92.3 (2405546, 2018-03-11)"
   sodipodi:docname="road_logo_white.svg">
  <defs
     id="defs2" />
  <sodipodi:namedview
     id="base"
     pagecolor="#ffffff"
     bordercolor="#666666"
     borderopacity="1.0"
     inkscape:pageopacity="0.0"
     inkscape:pageshadow="2"
     inkscape:zoom="0.49497475"
     inkscape:cx="641.45377"
     inkscape:cy="720.02515"
     inkscape:document-units="mm"
     inkscape:current-layer="g3779"
     showgrid="true"
     inkscape:snap-grids="false"
     inkscape:snap-midpoints="true"
     inkscape:window-width="1366"
     inkscape:window-height="705"
     inkscape:window-x="-8"
     inkscape:window-y="-8"
     inkscape:window-maximized="1">
    <sodipodi:guide
       position="-24.054257,-12.828937"
       orientation="0,793.70079"
       id="guide3766"
       inkscape:locked="false" />
    <sodipodi:guide
       position="389.67897,24.054257"
       orientation="-1122.5197,0"
       id="guide3768"
       inkscape:locked="false" />
    <sodipodi:guide
       position="238.93896,306.82542"
       orientation="0,-793.70079"
       id="guide3770"
       inkscape:locked="false" />
    <sodipodi:guide
       position="-35.814117,-12.828937"
       orientation="1122.5197,0"
       id="guide3772"
       inkscape:locked="false" />
    <inkscape:grid
       type="xygrid"
       id="grid3776" />
  </sodipodi:namedview>
  <metadata
     id="metadata5">
    <rdf:RDF>
      <cc:Work
         rdf:about="">
        <dc:format>image/svg+xml</dc:format>
        <dc:type
           rdf:resource="http://purl.org/dc/dcmitype/StillImage" />
        <dc:title></dc:title>
      </cc:Work>
    </rdf:RDF>
  </metadata>
  <g
     inkscape:groupmode="layer"
     id="layer2"
     inkscape:label="Layer 2" />
  <g
     inkscape:label="Layer 1"
     inkscape:groupmode="layer"
     id="layer1">
    <g
       id="g3764"
       transform="matrix(0.68012161,0,0,0.60484809,0.38364526,104.77904)"
       inkscape:export-xdpi="96"
       inkscape:export-ydpi="96"
       inkscape:export-filename="F:\g3764.png">
      <path
         id="path3735"
         d="M 0,0 H 292 V 113 H 0 Z"
         inkscape:connector-curvature="0"
         style="fill:none" />
      <g
         id="g3779">
        <path
           style="fill:#000000;stroke-width:4.59686136"
           d="m 232.53516,205.12695 c -4.70953,0.14783 -8.90134,2.33019 -9.74219,7.25586 -9.79778,29.5215 -16.9145,59.90905 -25.20117,89.77735 -64.24613,4.33502 -128.492158,8.93065 -192.7382844,13.48242 -17.7432396,0.91035 -35.3401636,1.60391 -52.7421876,5.33203 4.630791,4.24832 9.553882,6.11162 14.81836,5.63477 75.555004,-2.60102 151.011402,-8.62613 226.566402,-10.27344 -22.32528,80.7181 -44.40526,161.52213 -66.77929,242.24023 -6.43436,26.92049 -16.5265,53.45147 -20.6211,80.71875 8.18919,-3.98822 9.65259,-7.58678 12.08985,-15.25976 32.51302,-103.13017 66.48776,-205.9562 98.31836,-309.25977 34.70655,-3.46802 69.70555,-2.55661 104.41211,-6.11133 -10.87018,18.4672 -17.20643,38.19077 -26.0293,57.35156 -15.15975,25.35988 -33.14628,49.59225 -46.79492,75.73243 13.98986,1.5606 21.30179,-13.82935 29.92968,-21.45899 -10.0415,26.74709 -17.64704,54.79526 -24.86132,82.2793 -4.63079,17.77359 -10.04035,35.06987 -11.94141,53.32031 6.43436,-2.29756 10.52933,-3.90039 13.99023,-9.44922 20.08301,-28.95794 38.50817,-58.95602 59.3711,-87.48047 2.53475,-4.33502 6.67755,-6.15713 11.16211,-8.49804 -4.24083,23.97267 -11.11303,46.29919 -13.25781,70.22851 4.5333,-2.08081 8.91953,-3.38125 12.13671,-7.10937 11.6501,-12.87502 22.17932,-26.53128 33.43946,-39.62305 -0.34122,20.2012 -9.31001,49.59313 4.77734,66.97656 11.69884,12.83167 28.71111,-1.171 39.14258,-8.15039 32.31804,-26.83378 56.25105,-63.2903 78.67383,-96.88672 -12.04006,-3.81481 -10.77334,-4.55157 -17.59766,4.63868 -18.18195,28.26434 -37.72756,58.08774 -63.5625,81.41015 -5.80067,4.89858 -20.7666,15.51973 -28.22461,9.06055 -3.9971,-11.31441 -0.92466,-24.53525 0.87891,-36.06641 12.57625,-0.30345 22.17874,0.69406 30.80664,-8.92968 18.6694,-20.67806 29.3436,-49.20366 24.66406,-75.77735 -7.36052,-3.03451 -14.81725,-10.14294 -23.34766,-6.32812 -16.52461,8.10649 -23.59256,21.02408 -32.07421,35.15625 -11.79633,20.15785 -27.88281,35.19963 -42.79883,53.79687 8.28668,-22.41206 20.32724,-51.49989 10.62695,-75.03906 -5.94691,1.17046 -12.86896,0.60791 -17.35351,4.76953 -20.76544,19.2475 -34.80452,46.34194 -49.62305,69.1875 7.16554,-20.9815 15.25733,-41.70361 23.00781,-62.51172 7.50676,-20.1145 13.45418,-41.7908 23.25195,-61.125 10.87018,-21.37166 28.17416,-35.37364 28.36914,-60.38672 87.83879,-4.11827 175.72567,-8.75596 263.56446,-12.96093 2.77847,1.6473 5.50855,3.29409 8.23828,4.9414 29.83204,-4.98527 58.34756,-13.87057 88.13086,-18.8125 54.05839,-9.62375 106.99659,-17.34089 162.37109,-16.77734 27.88224,0.39015 52.69365,-2.47179 79.25977,7.19531 10.28523,4.03157 18.96078,12.35538 16.57226,23.01953 -4.09459,28.22099 -28.32,55.35872 -48.79297,76.29688 -43.13947,42.09306 -94.81021,78.46423 -147.40625,110.71679 71.80163,41.31276 145.55281,80.15391 217.89063,120.81641 9.01785,4.20497 15.25874,10.79506 26.12894,5.89648 -8.2867,-5.46212 -16.81778,-10.66507 -25.64066,-15.43359 -68.04825,-37.02108 -135.75465,-74.47615 -203.90039,-111.36719 63.80742,-39.7088 123.81217,-79.5047 176.4082,-131.35156 19.79054,-20.1145 35.43748,-44.34609 29.68555,-72.04687 -5.5082,-17.03664 -24.324,-26.704 -42.55469,-30.82227 -41.23841,-8.23654 -84.08564,-4.89778 -125.22656,1.9082 -52.69352,7.54294 -103.582,20.1138 -155.20313,31.81836 -4.14333,-4.07492 -6.0948,-11.61824 -13.60156,-11.05468 -143.50576,9.40699 -288.61915,21.06875 -432.07617,30.3457 7.94546,-27.48404 18.08334,-54.49215 25.73633,-82.01953 2.40679,-7.77595 -6.87735,-13.17998 -14.72656,-12.9336 z m 173.19726,221.88282 c -1.36486,22.36871 0.39145,45.51794 -24.37109,58.34961 -2.09604,-22.62882 9.65005,-41.00953 24.37109,-58.34961 z"
           transform="matrix(0.20514856,0,0,0.23067935,17.52443,-37.942213)"
           id="path3737"
           inkscape:connector-curvature="0" />
      </g>
      <g
         id="g3782">
        <path
           style="fill:#000000;stroke-width:4.59686136"
           d="m 1164.5879,303.1582 c -2.6922,0.10912 -5.5113,0.98693 -8.1797,2.51368 -5.9469,9.97053 -8.4327,21.6753 -12.5273,32.38281 -9.5053,28.95794 -21.8856,56.87471 -33.8282,85.0957 -8.3354,-1.56061 -15.453,-6.02553 -23.4472,-1.12695 -21.5941,13.04841 -29.9774,42.00712 -45.3809,60.95117 1.0724,-9.2336 3.0218,-18.55509 3.2168,-27.83203 -0.9262,-8.7134 -16.2806,-9.88251 -18.1816,-1.03906 -9.1154,25.09977 -15.1608,48.46478 -38.46097,66.67187 -0.92616,-18.03369 5.50917,-34.1593 13.21097,-50.45898 12.5275,-23.01897 25.5423,-44.0868 52.6933,-55.53125 0.098,-3.94487 0.2425,-7.93404 0.3887,-11.87891 -4.1921,-1.60396 -8.4331,-3.03424 -12.7227,-4.24805 -21.5453,12.44152 -35.0475,30.51836 -45.77144,50.84961 -8.04296,14.21887 -17.4497,27.0513 -37.24024,27.65821 1.5111,-11.79126 5.36078,-23.36657 6.18946,-35.20118 -0.87743,-7.84639 -3.60659,-15.60592 -5.41016,-23.32226 -15.30598,-4.76853 -23.49464,-2.99109 -34.1211,7.75976 -17.49951,20.20121 -30.75901,46.21168 -32.61132,71.875 -0.68244,11.31441 7.06923,23.10482 21.35156,21.84766 18.42567,-0.4335 26.32161,-21.93546 36.26562,-32.59961 12.67375,-0.91035 21.88752,-0.51991 33.83008,-6.02539 -3.36341,12.31146 -11.35914,29.78143 -4.33984,41.74609 1.99855,5.33208 10.18765,7.1964 14.86719,3.07813 14.28229,-7.75969 21.64359,-20.98032 30.27149,-33.20508 1.2186,15.99623 10.1887,20.11377 22.375,29.82422 8.3842,-3.29462 16.3281,-5.67877 22.0801,-12.44141 23.4951,-27.18058 36.0242,-56.52937 52.5488,-86.48437 -7.1655,40.44575 -21.8871,87.65547 -12.918,128.36133 18.8157,-10.40406 27.2979,-29.69523 39.3379,-45.90821 15.6472,-24.36282 35.2413,-47.98877 46.1602,-74.3457 -13.9411,1.04041 -15.4523,9.92766 -21.8379,18.81445 -16.1834,26.74709 -34.0239,52.54027 -51.4746,78.59375 -1.7549,-1.3005 -3.46,-2.64442 -5.166,-3.98828 11.0164,-65.50218 31.7807,-128.66329 54.4472,-191.56445 2.5835,-7.75969 6.338,-16.69 5.2657,-24.83985 -2.3034,-3.95027 -5.8417,-5.81611 -9.7364,-5.98242 -0.3786,-0.0162 -0.7599,-0.0156 -1.1445,0 z m -61.3594,133.08399 c -14.0386,26.74708 -27.5897,62.29481 -55.082,80.28515 0.4874,-27.09388 22.5677,-53.79674 39.3847,-75.34179 5.2158,-1.73401 10.4328,-3.38275 15.6973,-4.94336 z m -166.90428,1.77734 c 1.21863,12.22476 5.2643,24.9272 4.48437,37.19531 -3.94835,13.69867 -13.30701,28.35079 -27.29687,35.76368 -6.14189,-0.34681 -8.96979,-2.94828 -8.4336,-7.7168 -0.77992,-25.79338 14.33153,-45.73459 31.2461,-65.24219 z"
           id="path3739"
           transform="matrix(0.20514856,0,0,0.23067935,17.52443,-37.942213)"
           inkscape:connector-curvature="0" />
      </g>
      <path
         id="path3741"
         d="m 170.24,36.45 c -1.82,7.37 -4.5,14.42 -6.8,21.65 -2.74,9.14 -6.05,18.09 -8.74,27.26 -0.92,2.28 -1.09,5.29 -3.7,6.28 2.81,-12.95 6.53,-25.72 9.65,-38.61 1.65,-5.56 2.55,-11.48 4.52,-16.9 1.38,-2.33 3.37,-0.49 5.07,0.32 z"
         inkscape:connector-curvature="0"
         style="fill:#000000" />
    </g>
  </g>
</svg>
